<?xml version="1.0"?>
<svg xmlns="http://www.w3.org/2000/svg" xmlns:xlink="http://www.w3.org/1999/xlink" width="512" height="512" viewBox="0 0 512 512"><defs><linearGradient id="a" data-name="New Gradient Swatch 1" x1="25.842" y1="509.62" x2="521.148" y2="14.314" gradientUnits="userSpaceOnUse"><stop offset="0" stop-color="#003f8a"/><stop offset="0.518" stop-color="#00d7df"/><stop offset="1" stop-color="#006df0"/></linearGradient><linearGradient id="b" x1="-113.995" y1="369.783" x2="381.311" y2="-125.523" xlink:href="#a"/></defs><g><path d="M496,400H464V320a32.03,32.03,0,0,0-32-32H400V269.92A43.937,43.937,0,0,0,416,236V212a44.052,44.052,0,0,0-44-44h-8a44.052,44.052,0,0,0-44,44v24a44.054,44.054,0,0,0,32,42.32V288H320a31.96,31.96,0,0,0-8,1.02V232a24.032,24.032,0,0,0-24-24H169.7A87.974,87.974,0,1,0,56,238.37V360a24.032,24.032,0,0,0,24,24h58.22l-1.5,16H16a8,8,0,0,0-8,8v24a8,8,0,0,0,8,8H496a8,8,0,0,0,8-8V408A8,8,0,0,0,496,400ZM336,236V212a28.031,28.031,0,0,1,28-28h8a28.031,28.031,0,0,1,28,28v24a28.031,28.031,0,0,1-28,28h-8A28.031,28.031,0,0,1,336,236Zm48,42.32V288H368v-8h4A43.646,43.646,0,0,0,384,278.32Zm-80,99.55A23.937,23.937,0,0,0,312,360V306.16a15.939,15.939,0,0,1,8-2.16H432a16.021,16.021,0,0,1,16,16v80H408V384h16a8,8,0,0,0,8-8V345a8,8,0,0,0-16,0v23H376a24.032,24.032,0,0,0-24,24v8H336V328a8,8,0,0,0-16,0v72H304ZM392,384v16H368v-8a8.011,8.011,0,0,1,8-8ZM24,160a72,72,0,1,1,107.99,62.37,7.982,7.982,0,0,0-3.85,8.39l4.02,21.49L108.64,233.4a8,8,0,0,0-5-1.76,6.45,6.45,0,0,0-.76.04c-2.25.21-4.56.32-6.88.32A72.083,72.083,0,0,1,24,160ZM80,368a8.011,8.011,0,0,1-8-8V244.67A87.608,87.608,0,0,0,96,248c1.7,0,3.41-.05,5.1-.15L139,278.24a8,8,0,0,0,12.86-7.71l-6.99-37.34A89.177,89.177,0,0,0,156.36,224H288a8.011,8.011,0,0,1,8,8V360a8.011,8.011,0,0,1-8,8H228.28l-5.32-56.75A7.988,7.988,0,0,0,215,304H153a7.988,7.988,0,0,0-7.96,7.25L139.72,368Zm208,16v16H231.28l-1.5-16Zm-72.79,16H152.79l2.17-23.18v-.01L160.29,320h47.42l5.33,56.81v.01ZM488,424H24v-8H488Z" fill="url(#a)"/><path d="M120.008,192A8,8,0,1,0,110.4,179.2,23.781,23.781,0,0,1,96,184a24.042,24.042,0,0,1-22.629-16H128a8,8,0,0,0,8-8,40,40,0,1,0-15.992,32ZM96,136a24.042,24.042,0,0,1,22.629,16H73.371A24.042,24.042,0,0,1,96,136Z" fill="url(#b)"/></g></svg>
